<svg width="34" height="33" viewBox="0 0 34 33" fill="none" xmlns="http://www.w3.org/2000/svg">
<path d="M14.67 0.166485C10.9973 0.67086 7.89678 2.18398 5.20879 4.77222C0.950599 8.87359 -0.83252 14.6739 0.365097 20.4742C1.42965 25.6241 5.00919 30.0972 9.91942 32.3801C11.2501 33.0172 12.1683 33.1632 12.5143 32.8181C12.7006 32.6323 12.7405 32.3137 12.7405 30.9068V29.2211L11.1836 29.2344C9.81297 29.2344 9.52022 29.1946 8.93472 28.9291C8.06977 28.5309 7.39112 27.8407 6.89877 26.8453C6.41972 25.8498 5.87414 25.1729 5.10234 24.5756C4.46361 24.0977 4.34385 23.8057 4.70313 23.673C5.10234 23.5137 5.62131 23.5934 6.28665 23.9119C6.99191 24.2438 7.37781 24.6021 8.08308 25.6109C9.06778 27.0178 10.5182 27.4956 12.1284 26.9382C12.7405 26.7258 12.7937 26.6727 12.98 26.0489C13.0731 25.6772 13.3127 25.1994 13.4857 24.9605C13.8849 24.4296 13.8849 24.3898 13.4324 24.3898C13.2195 24.3898 12.5542 24.2703 11.9288 24.111C8.92141 23.3545 7.07175 21.5626 6.40641 18.7089C6.12697 17.5276 6.11366 15.1119 6.3798 14.2226C6.61932 13.4661 7.1516 12.4175 7.56411 11.8998C7.81694 11.5813 7.83025 11.5016 7.67056 10.7318C7.49757 9.8027 7.57742 8.39576 7.85686 7.59938L8.04316 7.06846L8.76173 7.08173C9.61337 7.095 10.6247 7.46665 11.8622 8.20994L12.7538 8.74086L13.7784 8.50194C15.2156 8.17012 18.7818 8.17012 20.2189 8.50194L21.2436 8.74086L22.2815 8.14357C23.519 7.41356 24.7832 6.97555 25.4618 7.02864C25.901 7.06846 25.9808 7.12155 26.1405 7.59938C26.4199 8.40903 26.4998 9.8027 26.3268 10.7318C26.1671 11.5016 26.1804 11.5813 26.4332 11.8998C27.378 13.0811 27.8172 14.4748 27.8172 16.2932C27.7905 20.6069 25.9143 23.1421 22.0021 24.1243C21.4166 24.2703 20.7778 24.3898 20.5649 24.3898C20.1657 24.3898 20.0859 24.5358 20.3786 24.7747C20.4851 24.8543 20.698 25.2392 20.871 25.6241C21.1637 26.2613 21.1903 26.54 21.2569 29.5397C21.3101 32.1943 21.3633 32.7916 21.523 32.8978C22.1218 33.296 24.3973 32.4465 26.5264 31.0263C27.8571 30.137 30.1991 27.8142 31.064 26.5134C34.1778 21.8679 34.8565 16.1339 32.9004 10.9044C31.2636 6.53753 27.4446 2.75472 23.04 1.0956C20.3653 0.0868492 17.491 -0.231705 14.67 0.166485Z" fill="#5C5C5C"/>
</svg>
