<?xml version="1.0" standalone="no"?>
<!DOCTYPE svg PUBLIC "-//W3C//DTD SVG 20010904//EN"
 "http://www.w3.org/TR/2001/REC-SVG-20010904/DTD/svg10.dtd">
<svg version="1.0" xmlns="http://www.w3.org/2000/svg"
 width="256.000000pt" height="256.000000pt" viewBox="0 0 256.000000 256.000000"
 preserveAspectRatio="xMidYMid meet">

<g transform="translate(0.000000,256.000000) scale(0.100000,-0.100000)"
fill="#000000" stroke="none">
<path d="M1105 2545 c-276 -38 -509 -152 -711 -347 -320 -309 -454 -746 -364
-1183 80 -388 349 -725 718 -897 100 -48 169 -59 195 -33 14 14 17 38 17 144
l0 127 -117 -1 c-103 0 -125 3 -169 23 -65 30 -116 82 -153 157 -36 75 -77
126 -135 171 -48 36 -57 58 -30 68 30 12 69 6 119 -18 53 -25 82 -52 135 -128
74 -106 183 -142 304 -100 46 16 50 20 64 67 7 28 25 64 38 82 30 40 30 43 -4
43 -16 0 -66 9 -113 21 -226 57 -365 192 -415 407 -21 89 -22 271 -2 338 18
57 58 136 89 175 19 24 20 30 8 88 -13 70 -7 176 14 236 l14 40 54 -1 c64 -1
140 -29 233 -85 l67 -40 77 18 c108 25 376 25 484 0 l77 -18 78 45 c93 55 188
88 239 84 33 -3 39 -7 51 -43 21 -61 27 -166 14 -236 -12 -58 -11 -64 8 -88
71 -89 104 -194 104 -331 -2 -325 -143 -516 -437 -590 -44 -11 -92 -20 -108
-20 -30 0 -36 -11 -14 -29 8 -6 24 -35 37 -64 22 -48 24 -69 29 -295 4 -200 8
-245 20 -253 45 -30 216 34 376 141 100 67 276 242 341 340 234 350 285 782
138 1176 -123 329 -410 614 -741 739 -201 76 -417 100 -629 70z"/>
<path d="M455 730 c3 -5 10 -10 16 -10 5 0 9 5 9 10 0 6 -7 10 -16 10 -8 0
-12 -4 -9 -10z"/>
<path d="M506 691 c-3 -5 1 -14 8 -20 16 -13 32 2 21 19 -8 12 -22 13 -29 1z"/>
<path d="M556 621 c-7 -10 22 -37 30 -28 9 8 -3 37 -15 37 -5 0 -12 -4 -15 -9z"/>
<path d="M617 554 c-11 -11 5 -34 24 -34 22 0 24 11 7 28 -13 13 -22 15 -31 6z"/>
<path d="M702 488 c3 -7 15 -15 27 -16 16 -3 22 1 19 10 -3 7 -15 15 -27 16
-16 3 -22 -1 -19 -10z"/>
<path d="M904 489 c-8 -14 14 -29 33 -22 7 3 13 11 13 19 0 17 -36 19 -46 3z"/>
<path d="M811 476 c-9 -11 -8 -15 5 -20 20 -8 39 7 30 23 -10 15 -21 14 -35
-3z"/>
</g>
</svg>
