<svg width="33" height="33" viewBox="0 0 33 33" fill="none" xmlns="http://www.w3.org/2000/svg">
<path d="M0 0H33V33H0V0Z" fill="#5C5C5C"/>
<path d="M9.59599 28H4.41295V12.6441H9.59599V28ZM7.00167 10.5494C5.34431 10.5494 4 9.28641 4 7.76161C4 7.02918 4.31625 6.32675 4.87917 5.80885C5.44209 5.29095 6.20558 5 7.00167 5C7.79777 5 8.56126 5.29095 9.12419 5.80885C9.68709 6.32675 10.0034 7.02918 10.0034 7.76161C10.0034 9.28641 8.65849 10.5494 7.00167 10.5494ZM23.8225 28V20.5248C23.8225 18.7433 23.7835 16.4587 21.1278 16.4587C18.433 16.4587 18.0201 18.3942 18.0201 20.3965V28H12.8426V12.6441H17.8136V14.7388H17.8862C18.5781 13.5323 20.2684 12.259 22.7902 12.259C28.0358 12.259 29 15.437 29 19.5647V28H23.8225Z" fill="white"/>
</svg>
